# xmcd
#
# Track frame offsets: 
#        182
#        13177
#        33957
#        52990
#        74990
#        101112
#        118532
#        148580
#        161937
#        181657
#        199505
#        218467
#
# Disc length: 3132 seconds
#
# Revision: 0
# Processed by: cddbd v1.5.2PL0 Copyright (c) Steve Scherf et al.
# Submitted via: ExactAudioCopy v1.0b1
#
DISCID=aa0c3a0c
DTITLE=Khanh Ly - Uot Mi
DYEAR=1992
DGENRE=Blues
TTITLE0=Diem Xua
TTITLE1=Mot Buoi Sang Mua Xuan
TTITLE2=Nhu Canh Vac Bay
TTITLE3=Con Thay Mat Nguoi
TTITLE4=Em Con Nho
TTITLE5=Wandering Man
TTITLE6=Uot Mi
TTITLE7=Ca Dao Me
TTITLE8=Nguoi Ve Bong Nho
TTITLE9=Ru Em
TTITLE10=Sabaku
TTITLE11=Nhac Nhat Hoa Tau
EXTD=
EXTT0=
EXTT1=
EXTT2=
EXTT3=
EXTT4=
EXTT5=
EXTT6=
EXTT7=
EXTT8=
EXTT9=
EXTT10=
EXTT11=
PLAYORDER=
